<?xml version="1.0" encoding="utf-8"?><svg xmlns="http://www.w3.org/2000/svg" xmlns:xlink="http://www.w3.org/1999/xlink" width="1536" height="763" preserveAspectRatio="xMidYMid" viewBox="0 0 1536 763" style="z-index:1;margin-right:-2px;display:block;background-repeat-y:initial;background-repeat-x:initial;background-color:rgb(255, 255, 255);animation-play-state:paused" ><g transform="translate(768,381.5) scale(1,1) translate(-768,-381.5)" style="transform:matrix(1, 0, 0, 1, 0, 0);animation-play-state:paused" ><linearGradient id="lg-0.9967332706645509" x1="0" x2="1" y1="0" y2="0" style="animation-play-state:paused" ><stop stop-color="#ff00ff" offset="0" style="animation-play-state:paused" ></stop>

  
<stop stop-color="#00ffff" offset="1" style="animation-play-state:paused" ></stop></linearGradient>
<path d="M 0 0 M 0 699.082 Q 153.6 686.729 307.2 681.9 T 614.4 641.773 T 921.6 632.876 T 1228.8 584.248 T 1536 568.587 L 1536 168.748 Q 1382.4 221.461 1228.8 215.463 T 921.6 115.21 T 614.4 117.12 T 307.2 59.4357 T 0 45.1468 Z" fill="url(#lg-0.9967332706645509)" opacity="0.4" style="opacity:0.4;animation-play-state:paused" ></path>
<path d="M 0 0 M 0 682.02 Q 153.6 653.808 307.2 646.728 T 614.4 607.213 T 921.6 592.789 T 1228.8 570.023 T 1536 519.357 L 1536 236.435 Q 1382.4 172.325 1228.8 166.751 T 921.6 163.511 T 614.4 145.394 T 307.2 88.7668 T 0 73.8666 Z" fill="url(#lg-0.9967332706645509)" opacity="0.4" style="opacity:0.4;animation-play-state:paused" ></path>
<path d="M 0 0 M 0 676.447 Q 153.6 681.892 307.2 672.397 T 614.4 641.46 T 921.6 617.439 T 1228.8 564.166 T 1536 548.495 L 1536 213.835 Q 1382.4 150.689 1228.8 150.013 T 921.6 178.04 T 614.4 105.428 T 307.2 119.89 T 0 108.101 Z" fill="url(#lg-0.9967332706645509)" opacity="0.4" style="opacity:0.4;animation-play-state:paused" ></path>
<path d="M 0 0 M 0 699.751 Q 153.6 677.883 307.2 674.759 T 614.4 646.643 T 921.6 561.614 T 1228.8 546.375 T 1536 566.546 L 1536 235.951 Q 1382.4 199.66 1228.8 194.676 T 921.6 151.284 T 614.4 115.897 T 307.2 129.687 T 0 78.6666 Z" fill="url(#lg-0.9967332706645509)" opacity="0.4" style="opacity:0.4;animation-play-state:paused" ></path></g></svg>